<svg id="Artboard_5" data-name="Artboard 5" xmlns="http://www.w3.org/2000/svg" xmlns:xlink="http://www.w3.org/1999/xlink" width="1927" height="113.315" viewBox="0 0 1927 113.315">
  <defs>
    <clipPath id="clip-path">
      <rect id="Rectangle_5" data-name="Rectangle 5" width="1927" height="113.315" fill="none"/>
    </clipPath>
    <clipPath id="clip-path-2">
      <rect id="Rectangle_3" data-name="Rectangle 3" width="1927.585" height="853.224" transform="translate(0)" fill="none"/>
    </clipPath>
    <linearGradient id="linear-gradient" x1="0.5" y1="1" x2="0.5" gradientUnits="objectBoundingBox">
      <stop offset="0"/>
      <stop offset="0.96" stop-color="#012"/>
      <stop offset="1" stop-color="#1d1660"/>
    </linearGradient>
    <linearGradient id="linear-gradient-2" x1="0.5" y1="1" x2="0.5" gradientUnits="objectBoundingBox">
      <stop offset="0"/>
      <stop offset="0.96" stop-color="#012"/>
    </linearGradient>
    <linearGradient id="linear-gradient-3" x1="0.5" x2="0.5" y2="0" xlink:href="#linear-gradient"/>
    <linearGradient id="linear-gradient-4" y1="0.5" x2="1" y2="0.5" gradientUnits="objectBoundingBox">
      <stop offset="0" stop-color="#1d1660"/>
      <stop offset="0.04" stop-color="#012"/>
      <stop offset="1"/>
    </linearGradient>
    <radialGradient id="radial-gradient" cx="0.481" cy="0.502" r="0.079" gradientUnits="objectBoundingBox">
      <stop offset="0" stop-color="#703e90"/>
      <stop offset="1"/>
    </radialGradient>
  </defs>
  <g id="space_background" data-name="space background">
    <g id="Group_6" data-name="Group 6" clip-path="url(#clip-path)">
      <g id="Group_4" data-name="Group 4" transform="translate(-49.016 -0.248)">
        <g id="Group_1" data-name="Group 1" transform="translate(48.785)" clip-path="url(#clip-path-2)">
          <rect id="Rectangle_2" data-name="Rectangle 2" width="1927.585" height="853.224" transform="translate(0)" fill="#1a0066"/>
          <path id="Path_1" data-name="Path 1" d="M1934.068,665.782V799.025h.172a491.752,491.752,0,0,1-24.39,63.368V850.423H20.259v11.884A487.3,487.3,0,0,1-4.11,798.94H2.55V532.454H-4.11C9.081,489.419,28.5,447.9,53.536,408.343,103.6,329.25,176.044,258.01,265.553,198.205,444.593,78.553,691.922,4.56,965.1,4.56S1485.6,78.6,1664.619,198.248c89.509,59.826,161.952,131.067,212,210.159,25.033,39.557,44.455,81.077,57.646,124.111h-.171V665.761Z" transform="translate(-4.46 5.417)" fill="#1a0066"/>
          <path id="Path_2" data-name="Path 2" d="M1932.1,664.433v67.336H1943.5a456.782,456.782,0,0,1-14.947,65.395,489.638,489.638,0,0,1-24.283,63.112V849.053H21.893v11.116A492.045,492.045,0,0,1-2.39,797.057H.587V531.6H-2.369c13.127-42.864,32.485-84.234,57.432-123.62,49.873-78.794,122.037-149.757,211.2-209.348C444.622,79.444,691.008,5.729,963.133,5.75c272.147,0,518.512,73.758,696.846,192.941,89.167,59.591,161.331,130.555,211.182,209.37,24.926,39.408,44.284,80.757,57.41,123.642A459.622,459.622,0,0,1,1943.5,597.1h-11.414v67.336Z" transform="translate(-2.496 6.766)" fill="#1b0167"/>
          <path id="Path_3" data-name="Path 3" d="M1950.782,663.1a449.752,449.752,0,0,1-19.958,132.219,484.119,484.119,0,0,1-24.2,62.877V847.715H31.47v10.369a490.369,490.369,0,0,1-24.2-62.877A459.683,459.683,0,0,1-7.61,730.069H6.544V595.909H-7.589A456.086,456.086,0,0,1,7.294,530.77c13.084-42.715,32.378-83.914,57.217-123.151,49.68-78.495,121.566-149.181,210.411-208.537C452.571,80.347,697.994,6.93,969.091,6.93c542.2.021,981.691,293.8,981.691,656.144Z" transform="translate(-8.454 8.104)" fill="#1b0268"/>
          <path id="Path_4" data-name="Path 4" d="M1944.983,661.747a448.5,448.5,0,0,1-19.872,131.707A484.8,484.8,0,0,1,1901,856.1v-9.729H33.059v9.623a483.5,483.5,0,0,1-24.09-62.642,455.679,455.679,0,0,1-14.818-64.9H4.536V594.794H-5.829A455.4,455.4,0,0,1,8.99,529.912c13.02-42.544,32.249-83.594,56.982-122.682,49.487-78.2,121.095-148.6,209.6-207.727C452.554,81.238,697.034,8.1,967.083,8.12c540.1.021,977.922,292.665,977.9,653.627Z" transform="translate(-6.446 9.453)" fill="#1c0469"/>
          <path id="Path_5" data-name="Path 5" d="M1941.888,660.409a446.011,446.011,0,0,1-19.807,131.216,482.762,482.762,0,0,1-24,62.386v-8.982H37.351V853.9a483.925,483.925,0,0,1-24-62.386A446.59,446.59,0,0,1-6.44,660.3c.021-359.575,436.176-651.024,974.2-651s974.132,291.534,974.132,651.109Z" transform="translate(-7.119 10.79)" fill="#1c056a"/>
          <path id="Path_6" data-name="Path 6" d="M1936.066,659.071a444.765,444.765,0,0,1-19.722,130.7,480.361,480.361,0,0,1-23.919,62.152v-8.214H38.938v8.129a480.189,480.189,0,0,1-23.9-62.152,444.638,444.638,0,0,1-19.7-130.7C-4.66,300.8,429.8,10.459,965.724,10.48s970.363,290.4,970.341,648.57Z" transform="translate(-5.087 12.128)" fill="#1d066b"/>
          <path id="Path_7" data-name="Path 7" d="M1930.3,657.722a443.412,443.412,0,0,1-19.636,130.192,484.073,484.073,0,0,1-23.812,61.917v-7.468H40.538v7.361a475.431,475.431,0,0,1-23.812-61.917A443.412,443.412,0,0,1-2.91,657.616C-2.889,300.836,429.883,11.627,963.727,11.67S1930.3,300.943,1930.278,657.722Z" transform="translate(-3.09 13.477)" fill="#1e076d"/>
          <path id="Path_8" data-name="Path 8" d="M1924.489,656.385a441.373,441.373,0,0,1-19.572,129.68,477.739,477.739,0,0,1-23.726,61.661V841H42.137v6.614a478.953,478.953,0,0,1-23.726-61.661A441.353,441.353,0,0,1-1.14,656.278c.021-355.393,431.1-643.449,962.847-643.428s962.8,288.142,962.782,643.513Z" transform="translate(-1.07 14.815)" fill="#1e086e"/>
          <path id="Path_9" data-name="Path 9" d="M1918.712,655.036A440.03,440.03,0,0,1,1899.225,784.2a475.327,475.327,0,0,1-23.641,61.426v-5.974H43.726v5.867A475.219,475.219,0,0,1,20.106,784.1,440.128,440.128,0,0,1,.62,654.929C.641,300.944,430.029,14,959.7,14.04c529.668.021,959.014,287.011,958.992,641Z" transform="translate(0.939 16.164)" fill="#1f0a6f"/>
          <path id="Path_10" data-name="Path 10" d="M1912.9,653.7a437.382,437.382,0,0,1-19.422,128.656,474.771,474.771,0,0,1-23.534,61.191v-5.227H45.325v5.121a474.738,474.738,0,0,1-23.534-61.191A438.176,438.176,0,0,1,2.39,653.591C2.411,300.994,430.108,15.2,957.678,15.22S1912.922,301.1,1912.9,653.7Z" transform="translate(2.959 17.501)" fill="#200b70"/>
          <path id="Path_11" data-name="Path 11" d="M1907.124,652.349a436.026,436.026,0,0,1-19.336,128.144,470.867,470.867,0,0,1-23.448,60.935v-4.459H46.913v4.374a470.854,470.854,0,0,1-23.448-60.935A435.447,435.447,0,0,1,4.15,652.242c0-351.19,426.026-635.875,951.519-635.832,525.493.021,951.455,284.749,951.433,635.939Z" transform="translate(4.968 18.85)" fill="#200c71"/>
          <path id="Path_12" data-name="Path 12" d="M1901.313,651.011a435.034,435.034,0,0,1-19.251,127.653,471.576,471.576,0,0,1-23.362,60.7v-3.712H48.512v3.606a468.319,468.319,0,0,1-23.341-60.7A434.821,434.821,0,0,1,5.92,650.9C5.92,301.1,430.254,17.569,953.649,17.59S1901.334,301.209,1901.313,651.011Z" transform="translate(6.988 20.188)" fill="#210d72"/>
          <path id="Path_13" data-name="Path 13" d="M1895.524,649.685a432.989,432.989,0,0,1-19.187,127.141,469.483,469.483,0,0,1-23.255,60.445V834.3H50.111v2.859A466.649,466.649,0,0,1,26.855,776.7,432.974,432.974,0,0,1,7.69,649.557c0-348.395,422.643-630.818,943.96-630.8s943.9,282.488,943.874,630.882Z" transform="translate(9.009 21.514)" fill="#210e73"/>
          <path id="Path_14" data-name="Path 14" d="M1889.736,648.325a430.936,430.936,0,0,1-19.1,126.629,463.933,463.933,0,0,1-23.17,60.21v-2.219H51.711v2.112a467.074,467.074,0,0,1-23.17-60.21A430.934,430.934,0,0,1,9.44,648.218C9.44,301.21,430.391,19.939,949.609,19.96s940.127,281.357,940.106,628.365Z" transform="translate(11.006 22.874)" fill="#220f74"/>
          <path id="Path_15" data-name="Path 15" d="M1883.936,646.976A428.893,428.893,0,0,1,1864.9,773.092a463.431,463.431,0,0,1-23.084,59.975v-1.451H53.3v1.366a462.156,462.156,0,0,1-23.063-59.975A429.582,429.582,0,0,1,11.22,646.89c0-345.621,419.259-625.762,936.4-625.74S1883.957,301.376,1883.936,647Z" transform="translate(13.038 24.224)" fill="#231175"/>
          <path id="Path_16" data-name="Path 16" d="M1878.137,645.638a427.547,427.547,0,0,1-18.951,125.6,461.41,461.41,0,0,1-22.977,59.719v-.7H54.887v.619A462.856,462.856,0,0,1,31.91,771.136a427.031,427.031,0,0,1-18.93-125.6c0-344.213,417.568-623.244,932.611-623.2s932.568,279.1,932.546,623.308Z" transform="translate(15.047 25.561)" fill="#231276"/>
          <path id="Path_17" data-name="Path 17" d="M1872.359,644.3a425.717,425.717,0,0,1-18.887,125.093,459.027,459.027,0,0,1-22.891,59.485c-2.27,4.865-4.6,9.687-7.045,14.508V828.92H63.542V843.28c-2.441-4.8-4.775-9.644-7.045-14.508a462.1,462.1,0,0,1-22.891-59.485A425.7,425.7,0,0,1,14.74,644.194c0-342.826,415.876-620.705,928.842-620.684s928.778,277.965,928.756,620.79Z" transform="translate(17.055 26.899)" fill="#241377"/>
          <path id="Path_18" data-name="Path 18" d="M1866.549,642.974a423.656,423.656,0,0,1-18.8,124.581,459.687,459.687,0,0,1-22.806,59.25c-2.248,4.843-4.583,9.644-7.024,14.444V827.594H65.1v13.548q-3.63-7.169-7.024-14.444a455.274,455.274,0,0,1-22.784-59.25,424.382,424.382,0,0,1-18.78-124.6c0-341.418,414.184-618.187,925.052-618.166s925.009,276.834,924.987,618.252Z" transform="translate(19.076 28.225)" fill="#241478"/>
          <path id="Path_19" data-name="Path 19" d="M1860.75,641.625a422.56,422.56,0,0,1-18.716,124.09,457.592,457.592,0,0,1-22.7,58.994q-3.372,7.233-6.981,14.38V826.245H66.665v12.738c-2.42-4.758-4.732-9.559-6.981-14.38a457.885,457.885,0,0,1-22.7-59.015A422.554,422.554,0,0,1,18.27,641.5c0-340.031,412.493-615.67,921.283-615.627,508.79.021,921.218,275.7,921.2,615.734Z" transform="translate(21.084 29.574)" fill="#251579"/>
          <path id="Path_20" data-name="Path 20" d="M1854.972,640.276a420.513,420.513,0,0,1-18.651,123.578,455.2,455.2,0,0,1-22.613,58.759c-2.227,4.8-4.561,9.58-6.959,14.316V824.9H68.232v11.927c-2.4-4.758-4.732-9.516-6.959-14.316A458.34,458.34,0,0,1,38.66,763.747,420.5,420.5,0,0,1,20.03,640.169c0-338.644,410.8-613.131,917.492-613.109s917.45,274.572,917.428,613.216Z" transform="translate(23.093 30.923)" fill="#26167a"/>
          <path id="Path_21" data-name="Path 21" d="M1849.162,638.927A419.164,419.164,0,0,1,1830.6,761.993a450.422,450.422,0,0,1-22.527,58.524q-3.34,7.169-6.938,14.274V823.568H69.81v11.116q-3.6-7.1-6.938-14.274a450.286,450.286,0,0,1-22.506-58.524A419.163,419.163,0,0,1,21.8,638.82C21.8,301.585,430.909,28.207,935.524,28.25c504.615.021,913.66,273.441,913.638,610.677Z" transform="translate(25.113 32.272)" fill="#26177b"/>
          <path id="Path_22" data-name="Path 22" d="M1843.373,637.59a416.408,416.408,0,0,1-18.5,122.554,449.513,449.513,0,0,1-22.42,58.268c-2.206,4.758-4.518,9.495-6.9,14.21V822.21H71.365v10.305c-2.377-4.715-4.69-9.452-6.9-14.21a450.707,450.707,0,0,1-22.42-58.268A417.1,417.1,0,0,1,23.57,637.483C23.57,301.634,430.987,29.409,933.5,29.43S1843.394,301.741,1843.373,637.59Z" transform="translate(27.134 33.61)" fill="#27197c"/>
          <path id="Path_23" data-name="Path 23" d="M1837.574,636.252a415.28,415.28,0,0,1-18.416,122.042,450.217,450.217,0,0,1-22.335,58.034q-3.308,7.1-6.874,14.146v-9.6H72.933v9.495q-3.565-7.041-6.874-14.146a450.212,450.212,0,0,1-22.335-58.034A415.259,415.259,0,0,1,25.33,636.145c0-334.462,405.726-605.557,906.165-605.535s906.1,271.18,906.079,605.621Z" transform="translate(29.142 34.947)" fill="#271a7d"/>
          <path id="Path_24" data-name="Path 24" d="M1831.8,634.9a413.925,413.925,0,0,1-18.33,121.53,446.634,446.634,0,0,1-22.249,57.8c-2.206,4.715-4.475,9.409-6.852,14.082v-8.79H74.5v8.684q-3.533-7.009-6.852-14.082a446.491,446.491,0,0,1-22.227-57.8A413.927,413.927,0,0,1,27.09,634.8c0-333.054,404.034-603.039,902.374-603,498.34.021,902.332,270.049,902.31,603.1Z" transform="translate(31.151 36.296)" fill="#281b7e"/>
          <path id="Path_25" data-name="Path 25" d="M1825.974,633.577a411.881,411.881,0,0,1-18.266,121.017,445.71,445.71,0,0,1-22.142,57.543q-3.276,7.041-6.81,14.018v-7.98H76.066v7.873q-3.533-6.977-6.81-14.039a445.725,445.725,0,0,1-22.142-57.543A411.869,411.869,0,0,1,28.87,633.449c0-331.667,402.343-600.5,898.606-600.479S1826.017,301.888,1826,633.555Z" transform="translate(33.183 37.623)" fill="#281c7f"/>
          <path id="Path_26" data-name="Path 26" d="M1820.208,632.216a410.781,410.781,0,0,1-18.18,120.527,443.348,443.348,0,0,1-22.056,57.308c-2.184,4.673-4.433,9.345-6.788,13.975v-7.169H77.645v7.062q-3.5-6.945-6.788-13.975A446.451,446.451,0,0,1,48.8,752.636,410.077,410.077,0,0,1,30.62,632.11c0-330.259,400.651-597.982,894.815-597.94,494.164.021,894.773,267.787,894.751,598.046Z" transform="translate(35.18 38.983)" fill="#291d80"/>
          <path id="Path_27" data-name="Path 27" d="M1814.4,630.879a408.036,408.036,0,0,1-18.116,120.015,442.763,442.763,0,0,1-21.949,57.074c-2.163,4.651-4.433,9.3-6.767,13.911V815.52H79.2v6.251q-3.5-6.913-6.767-13.911a441.516,441.516,0,0,1-21.949-57.074A408.725,408.725,0,0,1,32.39,630.772C32.39,301.9,431.349,35.329,923.437,35.35S1814.419,302.007,1814.4,630.879Z" transform="translate(37.201 40.321)" fill="#2a1e81"/>
          <path id="Path_28" data-name="Path 28" d="M1808.608,629.541a406.688,406.688,0,0,1-18.03,119.5,440.78,440.78,0,0,1-21.863,56.818q-3.244,6.977-6.724,13.847v-5.547H80.756V819.6c-2.334-4.587-4.561-9.217-6.724-13.847a441.951,441.951,0,0,1-21.863-56.818,405.961,405.961,0,0,1-18.009-119.5c0-327.485,397.246-592.926,887.256-592.9s887.213,265.526,887.192,592.99Z" transform="translate(39.221 41.658)" fill="#2a1f82"/>
          <path id="Path_29" data-name="Path 29" d="M1802.8,628.192a405.443,405.443,0,0,1-17.945,118.991,438.347,438.347,0,0,1-21.778,56.583c-2.141,4.63-4.39,9.217-6.7,13.783v-4.737H82.334v4.63c-2.313-4.566-4.54-9.174-6.7-13.783a435.118,435.118,0,0,1-21.756-56.583A405.441,405.441,0,0,1,35.93,628.085C35.93,302.008,431.484,37.677,919.4,37.72c487.912.021,883.423,264.395,883.4,590.472Z" transform="translate(41.241 43.007)" fill="#2b2184"/>
          <path id="Path_30" data-name="Path 30" d="M1797.02,626.854a403.51,403.51,0,0,1-17.88,118.479,437.74,437.74,0,0,1-21.671,56.348c-2.141,4.609-4.368,9.174-6.681,13.74V811.5H83.9v3.819q-3.469-6.817-6.681-13.74a434.625,434.625,0,0,1-21.671-56.348A403.489,403.489,0,0,1,37.69,626.748c0-324.69,393.863-587.869,879.7-587.848s879.654,263.264,879.633,587.954Z" transform="translate(43.25 44.345)" fill="#2b2285"/>
          <path id="Path_31" data-name="Path 31" d="M1791.221,625.5a401.447,401.447,0,0,1-17.795,117.966,433.82,433.82,0,0,1-21.585,56.092c-2.141,4.587-4.347,9.132-6.638,13.676v-3.115H85.468v3.03c-2.291-4.523-4.518-9.089-6.638-13.676a436.987,436.987,0,0,1-21.585-56.092A401.449,401.449,0,0,1,39.45,625.41c0-323.282,392.171-585.351,875.907-585.33S1791.221,302.213,1791.2,625.5Z" transform="translate(45.259 45.682)" fill="#2c2386"/>
          <path id="Path_32" data-name="Path 32" d="M1785.432,624.146A399.407,399.407,0,0,1,1767.7,741.6a430.291,430.291,0,0,1-21.5,55.857q-3.18,6.849-6.617,13.612v-2.3H87.024v2.219c-2.291-4.523-4.5-9.046-6.617-13.612a430.128,430.128,0,0,1-21.478-55.857A400.2,400.2,0,0,1,41.22,624.061c0-321.9,390.479-582.812,872.138-582.791s872.1,261,872.074,582.9Z" transform="translate(47.279 47.031)" fill="#2d2487"/>
          <path id="Path_33" data-name="Path 33" d="M1779.622,622.809a398.3,398.3,0,0,1-17.645,116.964,430.831,430.831,0,0,1-21.392,55.623q-6.328,13.634-13.662,26.969V807.471H95.668v14.807q-7.291-13.346-13.641-26.969a429.636,429.636,0,0,1-21.392-55.623A398.306,398.306,0,0,1,42.99,622.724c0-320.508,388.788-580.295,868.348-580.274S1779.643,302.322,1779.622,622.809Z" transform="translate(49.299 48.369)" fill="#2d2588"/>
          <path id="Path_34" data-name="Path 34" d="M1773.855,621.471a396.264,396.264,0,0,1-17.581,116.452,430.1,430.1,0,0,1-21.307,55.367q-6.328,13.57-13.6,26.841V806.091H97.2v13.932q-7.259-13.282-13.6-26.841A430.076,430.076,0,0,1,62.3,737.816,396.247,396.247,0,0,1,44.74,621.365c0-319.1,387.1-577.777,864.579-577.735,477.483.021,864.536,258.741,864.515,577.841Z" transform="translate(51.297 49.707)" fill="#2e2689"/>
          <path id="Path_35" data-name="Path 35" d="M1768.034,620.122a394.312,394.312,0,0,1-17.5,115.94,425.3,425.3,0,0,1-21.221,55.132q-6.3,13.506-13.534,26.734V804.763H98.727v13.079Q91.5,804.625,85.193,791.108a425.158,425.158,0,0,1-21.2-55.132A395,395,0,0,1,46.52,620.037c0-317.713,385.4-575.238,860.789-575.217s860.746,257.61,860.725,575.324Z" transform="translate(53.328 51.056)" fill="#2e278a"/>
          <path id="Path_36" data-name="Path 36" d="M1762.256,618.785a393.064,393.064,0,0,1-17.409,115.427,425.85,425.85,0,0,1-21.114,54.9q-6.264,13.442-13.469,26.606V803.426H100.273v12.2q-7.2-13.154-13.469-26.606a422.74,422.74,0,0,1-21.114-54.9A393.07,393.07,0,0,1,48.28,618.7C48.28,302.394,431.993,45.979,905.3,46S1762.277,302.479,1762.256,618.785Z" transform="translate(55.337 52.393)" fill="#2f288b"/>
          <path id="Path_37" data-name="Path 37" d="M1756.446,617.436A391.037,391.037,0,0,1,1739.1,732.351a421.992,421.992,0,0,1-21.028,54.641q-6.231,13.378-13.405,26.5V802.077H101.807v11.329q-7.163-13.09-13.4-26.5a425.1,425.1,0,0,1-21.028-54.641A391.011,391.011,0,0,1,50.05,617.35c0-314.918,382.021-570.182,853.23-570.16s853.187,255.349,853.166,570.267Z" transform="translate(57.357 53.742)" fill="#2f298c"/>
          <path id="Path_38" data-name="Path 38" d="M1750.668,616.1a389.684,389.684,0,0,1-17.26,114.4,418.386,418.386,0,0,1-20.943,54.407q-6.2,13.346-13.362,26.371V800.718H103.353v10.476q-7.131-13.058-13.362-26.371a421.362,421.362,0,0,1-20.921-54.407,389.678,389.678,0,0,1-17.259-114.4c0-313.532,380.329-567.664,849.461-567.643s849.418,254.218,849.4,567.728Z" transform="translate(59.366 55.08)" fill="#302a8c"/>
          <path id="Path_39" data-name="Path 39" d="M1744.869,614.76a386.928,386.928,0,0,1-17.2,113.891,420.583,420.583,0,0,1-20.836,54.151q-6.167,13.282-13.3,26.265V799.38H104.877v9.6q-7.1-12.994-13.3-26.265a416.587,416.587,0,0,1-20.836-54.172A387.727,387.727,0,0,1,53.57,614.654c0-312.123,378.638-565.146,845.671-565.1s845.628,253.087,845.607,565.21Z" transform="translate(61.375 56.417)" fill="#302b8d"/>
          <path id="Path_40" data-name="Path 40" d="M1739.08,613.423A385.68,385.68,0,0,1,1721.97,726.8a418.157,418.157,0,0,1-20.75,53.916q-6.135,13.218-13.234,26.136v-8.812H106.412v8.726q-7.067-12.93-13.234-26.137a418.2,418.2,0,0,1-20.75-53.916,385.1,385.1,0,0,1-17.088-113.4c0-310.737,376.946-562.607,841.9-562.586S1739.1,302.686,1739.08,613.4Z" transform="translate(63.395 57.755)" fill="#312d8e"/>
          <path id="Path_41" data-name="Path 41" d="M1733.269,612.085a384.585,384.585,0,0,1-17.024,112.888,414.6,414.6,0,0,1-20.664,53.681q-6.135,13.154-13.17,26.03v-7.958H107.946v7.852q-7.034-12.866-13.169-26.03a413.277,413.277,0,0,1-20.643-53.681A384.477,384.477,0,0,1,57.11,611.978c0-309.35,375.254-560.09,838.112-560.068s838.069,250.825,838.047,560.154Z" transform="translate(65.415 59.093)" fill="#322e8f"/>
          <path id="Path_42" data-name="Path 42" d="M1727.48,610.736a382.546,382.546,0,0,1-16.96,112.376,415.637,415.637,0,0,1-20.557,53.425q-6.1,13.09-13.127,25.9v-7.083H109.481v7q-7-12.8-13.105-25.9a415.915,415.915,0,0,1-20.557-53.447A382.525,382.525,0,0,1,58.88,610.63C58.88,302.688,432.442,53.057,893.223,53.1s834.3,249.694,834.279,557.636Z" transform="translate(67.436 60.442)" fill="#322f90"/>
        </g>
        <path id="Path_43" data-name="Path 43" d="M199.84.011S291.448,68.137,333.7,86.081c0,0,52.828-3.926,59.98,0s38.523,23.342,41.757,30.873c3.255,7.553,5.418,23.726,11.906,31.257,6.488,7.553,64.926,35.567,85.484,38.81s70.323,12.93,80.066,19.394,6.488,21.571,11.906,29.1c5.418,7.553,37.86,20.482,50.858,29.1,12.977,8.62,53.556,6.465,65.719,11.863,12.184,5.4,38.138,21.571,38.138,21.571l9.722,8.62s-5.418,18.328,0,23.726,28.138,9.708,28.138,9.708-17.3-17.239-17.3-28.035-10.835-19.394-10.835-19.394-54.091-24.792-61.65-31.257c-7.58-6.465-75.74-62.536-81.137-72.222-5.418-9.708-17.3-36.655-23.812-44.208-6.488-7.553-68.16-23.726-83.321-30.19s-34.647-25.88-43.834-42.053S468.989,11.81,463.572,5.9s-17.3-5.91-17.3-5.91H199.862Z" transform="translate(277.108 0.237)" fill-rule="evenodd" fill="url(#linear-gradient)"/>
        <path id="Path_44" data-name="Path 44" d="M883.858,126.65s65.226,58.2,104.007,80.842,60.023,12.93,60.023,12.93,34.241,9.943,55.183,25.987,17.709,45.147,30.686,61.319,66.533,4.843,66.533,4.843l80.259,88.331,53.042,55.58s-57.26-74.377-66.875-90.55-76.169-109.965-89.145-126.138-30.836-12.93-43.813-35.567-27.581-48.518-48.695-67.912c-21.093-19.394-64.884-48.518-88.438-61.447s-60.879-25.88-60.879-25.88L870.818,34.436,807.519,0H517.02S659.507,97.548,724.262,121.786c24.5,9.174,159.6,4.843,159.6,4.843Z" transform="translate(639.129 0.248)" fill-rule="evenodd" fill="url(#linear-gradient-2)"/>
        <path id="Path_45" data-name="Path 45" d="M808.251,4.6s35.311,50.118,60.579,64.691C894.1,83.842,926.07,90.05,938.018,104.6s58.2,47.835,58.2,47.835l66.4,27.374S972.216,103.663,962.3,85.954s-36.489-32.26-36.489-32.26L808.23,4.643Z" transform="translate(971.508 5.462)" fill-rule="evenodd" fill="url(#linear-gradient-3)"/>
        <path id="Path_46" data-name="Path 46" d="M-22.89,336.041s76.062,54.812,91.33,68,56.275,12.183,69.852,26.03,37.924,19.906,54.969,38.7S266.752,501.416,286,523.605s51.971,31.257,68.481,41.285c16.489,10.007,67.625,34.266,67.625,34.266s-62.421-29.1-72.593-58.2-4.39-65.373-4.39-65.373,13.084-2.859,0-26.947-2.163-39.45-18.566-59.677c-16.424-20.205-24.262-56.6-13.041-73.566s37.388-66.824,31.607-96.481,45.012-51.484,45.012-51.484,76.811,7.276,86.04,19.394,76.832,32.089,76.832,32.089,54.005,2.966,61.372,0,30.515,16.429,49.359,33.412c18.866,16.983,22.527,6.635,48.716,24.814s31.2,45.616,46.211,58.951c0,0-16.81-29.294-22.1-58.951,0,0,26.9,2.944,46.382,7.809,19.465,4.843,28.8,3.776,42.271,14.018a155.76,155.76,0,0,0,28.266,16.706s-22.784-20.483-28.266-31.812-9.807-22.637-16.831-26.947-86.6-24.323-106.983-33.711c-20.386-9.409-37.645-40.389-37.645-40.389S617.1,117.5,587.68,116.516,506.65,101.41,487.87,88.224C469.048,74.974,407.055,0,407.055,0H-12.526L-22.869,336.041Z" transform="translate(22.89 0.248)" fill-rule="evenodd" fill="url(#linear-gradient-4)"/>
        <g id="Group_2" data-name="Group 2" transform="translate(183.837 26.747)">
          <ellipse id="Ellipse_1" data-name="Ellipse 1" cx="2.998" cy="2.987" rx="2.998" ry="2.987" transform="translate(280.456 23)" fill="#77bdff"/>
          <path id="Path_47" data-name="Path 47" d="M188.206,39.077a3,3,0,1,1-3-2.987A2.988,2.988,0,0,1,188.206,39.077Z" transform="translate(73.149 14.412)" fill="#77bdff" fill-rule="evenodd"/>
          <path id="Path_48" data-name="Path 48" d="M71.146,35.157a3,3,0,1,1-3-2.987A2.988,2.988,0,0,1,71.146,35.157Z" transform="translate(-60.46 9.968)" fill="#77bdff" fill-rule="evenodd"/>
          <ellipse id="Ellipse_2" data-name="Ellipse 2" cx="2.12" cy="2.112" rx="2.12" ry="2.112" transform="translate(417.139 71.646)" fill="#77bdff"/>
          <path id="Path_49" data-name="Path 49" d="M104.5,43.528a1.563,1.563,0,1,1-1.563-1.558A1.569,1.569,0,0,1,104.5,43.528Z" transform="translate(-19.12 21.078)" fill="#77bdff" fill-rule="evenodd"/>
          <path id="Path_50" data-name="Path 50" d="M202.623,43.963a1.006,1.006,0,1,1-1.006-1A1,1,0,0,1,202.623,43.963Z" transform="translate(94.15 22.2)" fill="#77bdff" fill-rule="evenodd"/>
          <ellipse id="Ellipse_3" data-name="Ellipse 3" cx="1.006" cy="1.003" rx="1.006" ry="1.003" transform="translate(257.093)" fill="#77bdff"/>
          <ellipse id="Ellipse_4" data-name="Ellipse 4" cx="1.006" cy="1.003" rx="1.006" ry="1.003" transform="translate(63.663 83.253)" fill="#77bdff"/>
          <ellipse id="Ellipse_5" data-name="Ellipse 5" cx="1.006" cy="1.003" rx="1.006" ry="1.003" transform="translate(25.397 84.256)" fill="#77bdff"/>
          <path id="Path_51" data-name="Path 51" d="M134.963,26.533a1.006,1.006,0,1,1-1.006-1A1,1,0,0,1,134.963,26.533Z" transform="translate(16.925 2.441)" fill="#77bdff" fill-rule="evenodd"/>
          <ellipse id="Ellipse_6" data-name="Ellipse 6" cx="1.006" cy="1.003" rx="1.006" ry="1.003" transform="translate(233.667 2.006)" fill="#77bdff"/>
          <path id="Path_52" data-name="Path 52" d="M76.363,51.513a1.006,1.006,0,1,1-1.006-1A1,1,0,0,1,76.363,51.513Z" transform="translate(-49.96 30.759)" fill="#77bdff" fill-rule="evenodd"/>
          <path id="Path_53" data-name="Path 53" d="M101.973,51.513a1.006,1.006,0,1,1-1.006-1A1,1,0,0,1,101.973,51.513Z" transform="translate(-20.729 30.759)" fill="#77bdff" fill-rule="evenodd"/>
          <path id="Path_54" data-name="Path 54" d="M143.423,32.7a1.006,1.006,0,1,1-1.006-1A1,1,0,0,1,143.423,32.7Z" transform="translate(26.581 9.436)" fill="#77bdff" fill-rule="evenodd"/>
          <ellipse id="Ellipse_7" data-name="Ellipse 7" cx="1.006" cy="1.003" rx="1.006" ry="1.003" transform="translate(95.891 68.211)" fill="#77bdff"/>
          <path id="Path_55" data-name="Path 55" d="M64.973,36.623a1.006,1.006,0,1,1-1.006-1A1,1,0,0,1,64.973,36.623Z" transform="translate(-62.96 13.879)" fill="#77bdff" fill-rule="evenodd"/>
          <ellipse id="Ellipse_8" data-name="Ellipse 8" cx="1.006" cy="1.003" rx="1.006" ry="1.003" transform="translate(93.621 16.706)" fill="#77bdff"/>
          <ellipse id="Ellipse_9" data-name="Ellipse 9" cx="2.998" cy="2.987" rx="2.998" ry="2.987" transform="translate(419.987 59.186)" fill="#77bdff"/>
          <path id="Path_56" data-name="Path 56" d="M309.33,20.042a2.116,2.116,0,1,1,0,2.987A2.112,2.112,0,0,1,309.33,20.042Z" transform="translate(217.534 -4.488)" fill="#77bdff" fill-rule="evenodd"/>
          <ellipse id="Ellipse_10" data-name="Ellipse 10" cx="2.12" cy="2.112" rx="2.12" ry="2.112" transform="translate(467.761 44.699)" fill="#77bdff"/>
          <path id="Path_57" data-name="Path 57" d="M263.337,15.917a.5.5,0,1,1,0,.7A.505.505,0,0,1,263.337,15.917Z" transform="translate(165.58 -8.62)" fill="#77bdff" fill-rule="evenodd"/>
          <ellipse id="Ellipse_11" data-name="Ellipse 11" cx="1.006" cy="1.003" rx="1.006" ry="1.003" transform="translate(387.567 7.638)" fill="#77bdff"/>
          <path id="Path_58" data-name="Path 58" d="M292.424,44.683a1,1,0,1,1,0,1.408A1.011,1.011,0,0,1,292.424,44.683Z" transform="translate(198.614 23.827)" fill="#77bdff" fill-rule="evenodd"/>
          <ellipse id="Ellipse_12" data-name="Ellipse 12" cx="1.006" cy="1.003" rx="1.006" ry="1.003" transform="translate(374.119 61.17)" fill="#77bdff"/>
          <path id="Path_59" data-name="Path 59" d="M306.517,42.617a.5.5,0,1,1,0,.7A.505.505,0,0,1,306.517,42.617Z" transform="translate(214.864 21.647)" fill="#77bdff" fill-rule="evenodd"/>
          <path id="Path_60" data-name="Path 60" d="M256.874,38.432a2.116,2.116,0,1,1,0,2.987A2.112,2.112,0,0,1,256.874,38.432Z" transform="translate(157.653 16.359)" fill="#77bdff" fill-rule="evenodd"/>
          <path id="Path_61" data-name="Path 61" d="M266,32.7a1,1,0,1,1,0,1.408A1.011,1.011,0,0,1,266,32.7Z" transform="translate(168.459 10.246)" fill="#77bdff" fill-rule="evenodd"/>
          <ellipse id="Ellipse_13" data-name="Ellipse 13" cx="1.006" cy="1.003" rx="1.006" ry="1.003" transform="translate(420.823 37.829)" fill="#77bdff"/>
          <path id="Path_62" data-name="Path 62" d="M253.187,34.417a.5.5,0,1,1,0,.7A.505.505,0,0,1,253.187,34.417Z" transform="translate(153.995 12.352)" fill="#77bdff" fill-rule="evenodd"/>
          <path id="Path_63" data-name="Path 63" d="M258.367,34.207a.5.5,0,1,1,0,.7A.505.505,0,0,1,258.367,34.207Z" transform="translate(159.907 12.114)" fill="#77bdff" fill-rule="evenodd"/>
          <path id="Path_64" data-name="Path 64" d="M251.824,38.383a1,1,0,1,1,0,1.408A1.011,1.011,0,0,1,251.824,38.383Z" transform="translate(152.274 16.685)" fill="#77bdff" fill-rule="evenodd"/>
        </g>
        <g id="Group_3" data-name="Group 3" transform="translate(972.162 31.089)">
          <ellipse id="Ellipse_14" data-name="Ellipse 14" cx="2.356" cy="2.347" rx="2.356" ry="2.347" transform="translate(135.699 71.507)" fill="#fff"/>
          <ellipse id="Ellipse_15" data-name="Ellipse 15" cx="1.114" cy="1.109" rx="1.114" ry="1.109" transform="translate(0 64.339)" fill="#fff"/>
          <path id="Path_65" data-name="Path 65" d="M561.632,38.2a3.325,3.325,0,1,1,0,4.694A3.33,3.33,0,0,1,561.632,38.2Z" transform="translate(-283.232 11.354)" fill="#fff" fill-rule="evenodd"/>
          <ellipse id="Ellipse_16" data-name="Ellipse 16" cx="3.341" cy="3.328" rx="3.341" ry="3.328" transform="translate(138.847 57.703)" fill="#fff"/>
          <path id="Path_66" data-name="Path 66" d="M551.658,19.186a2.358,2.358,0,1,1,0,3.328A2.371,2.371,0,0,1,551.658,19.186Z" transform="translate(-294.287 -9.872)" fill="#fff" fill-rule="evenodd"/>
          <path id="Path_67" data-name="Path 67" d="M521.378,34.656a2.358,2.358,0,1,1,0,3.328A2.371,2.371,0,0,1,521.378,34.656Z" transform="translate(-328.847 7.664)" fill="#fff" fill-rule="evenodd"/>
          <path id="Path_68" data-name="Path 68" d="M555.621,40.86a1.1,1.1,0,1,1,0,1.558A1.114,1.114,0,0,1,555.621,40.86Z" transform="translate(-289.342 15.115)" fill="#fff" fill-rule="evenodd"/>
          <path id="Path_69" data-name="Path 69" d="M500.656,14.615a.559.559,0,1,1,0,.789A.57.57,0,0,1,500.656,14.615Z" transform="translate(-351.894 -14.455)" fill="#fff" fill-rule="evenodd"/>
          <ellipse id="Ellipse_17" data-name="Ellipse 17" cx="1.114" cy="1.109" rx="1.114" ry="1.109" transform="translate(102.893 0.544)" fill="#fff"/>
          <ellipse id="Ellipse_18" data-name="Ellipse 18" cx="3.341" cy="3.328" rx="3.341" ry="3.328" transform="translate(572.196 42.106)" fill="#fff"/>
          <ellipse id="Ellipse_19" data-name="Ellipse 19" cx="3.341" cy="3.328" rx="3.341" ry="3.328" transform="translate(477.119 61.031)" fill="#fff"/>
          <path id="Path_70" data-name="Path 70" d="M613.388,47.566a2.358,2.358,0,1,1,0,3.328A2.371,2.371,0,0,1,613.388,47.566Z" transform="translate(-223.83 22.299)" fill="#fff" fill-rule="evenodd"/>
          <path id="Path_71" data-name="Path 71" d="M674.7,19.016a2.358,2.358,0,1,1,0,3.328A2.371,2.371,0,0,1,674.7,19.016Z" transform="translate(-153.852 -10.065)" fill="#fff" fill-rule="evenodd"/>
          <path id="Path_72" data-name="Path 72" d="M665.878,27.566a2.358,2.358,0,1,1,0,3.328A2.371,2.371,0,0,1,665.878,27.566Z" transform="translate(-163.919 -0.373)" fill="#fff" fill-rule="evenodd"/>
          <ellipse id="Ellipse_20" data-name="Ellipse 20" cx="1.114" cy="1.109" rx="1.114" ry="1.109" transform="translate(217.328 67.731)" fill="#fff"/>
          <ellipse id="Ellipse_21" data-name="Ellipse 21" cx="1.114" cy="1.109" rx="1.114" ry="1.109" transform="translate(600.377 11.703)" fill="#fff"/>
          <ellipse id="Ellipse_22" data-name="Ellipse 22" cx="1.114" cy="1.109" rx="1.114" ry="1.109" transform="translate(87.989 59.922)" fill="#fff"/>
          <path id="Path_73" data-name="Path 73" d="M548.546,44.225a.559.559,0,1,1,0,.789A.57.57,0,0,1,548.546,44.225Z" transform="translate(-297.234 19.111)" fill="#fff" fill-rule="evenodd"/>
          <path id="Path_74" data-name="Path 74" d="M493.488,39.586a2.358,2.358,0,1,1,0,3.328A2.371,2.371,0,0,1,493.488,39.586Z" transform="translate(-360.68 13.253)" fill="#fff" fill-rule="evenodd"/>
          <ellipse id="Ellipse_23" data-name="Ellipse 23" cx="1.114" cy="1.109" rx="1.114" ry="1.109" transform="translate(154.564 39.375)" fill="#fff"/>
          <path id="Path_75" data-name="Path 75" d="M496.7,30.73a1.1,1.1,0,1,1,0,1.558A1.114,1.114,0,0,1,496.7,30.73Z" transform="translate(-356.591 3.631)" fill="#fff" fill-rule="evenodd"/>
          <ellipse id="Ellipse_24" data-name="Ellipse 24" cx="0.557" cy="0.555" rx="0.557" ry="0.555" transform="translate(124.499 43.792)" fill="#fff"/>
          <path id="Path_76" data-name="Path 76" d="M495.145,34.9a.559.559,0,1,1,0,.789A.57.57,0,0,1,495.145,34.9Z" transform="translate(-358.183 8.534)" fill="#fff" fill-rule="evenodd"/>
          <path id="Path_77" data-name="Path 77" d="M487.891,39.54a1.1,1.1,0,1,1,0,1.558A1.114,1.114,0,0,1,487.891,39.54Z" transform="translate(-366.647 13.618)" fill="#fff" fill-rule="evenodd"/>
        </g>
      </g>
      <g id="Group_5" data-name="Group 5" transform="translate(-145.925 -191.846)" opacity="0.5">
        <path id="Path_78" data-name="Path 78" d="M170.418.279C264.538.433,341.114,170.4,341.457,379.9s-75.679,379.217-169.8,379.063S.962,588.847.62,379.342,76.3.125,170.418.279Z" transform="matrix(0.53, -0.848, 0.848, 0.53, 0, 288.752)" fill="url(#radial-gradient)"/>
      </g>
      <rect id="Rectangle_4" data-name="Rectangle 4" width="1927.585" height="853.224" transform="translate(-0.232 -0.248)" fill="none"/>
    </g>
  </g>
</svg>
